mastitorrents.com
  
http://mastitorrents.com/forums/index.php




8b    d8    db    .dP"Y8 888888 88 888888  dP"Yb  88""Yb 88""Yb 888888 88b 88 888888 .dP"Y8 
88b  d88   dPYb   `Ybo."   88   88   88   dP   Yb 88__dP 88__dP 88__   88Yb88   88   `Ybo." 
88YbdP88  dP__Yb  o.`Y8b   88   88   88   Yb   dP 88"Yb  88"Yb  88""   88 Y88   88   o.`Y8b 
88 YY 88 dP""""Yb 8bodP'   88   88   88    YbodP  88  Yb 88  Yb 888888 88  Y8   88   8bodP' 



MASTI TORRENTS RELEASERS [ MTR ]

    Where Quality Matters!











description:

General
Complete name : Ready - 2011 - Xvid - 1CD - McScr-Rip - MP3 - E-subs - TDT.avi
IMDB : www.imdb.com/title/tt1708532/
Format : AVI
Format/Info : Audio Video Interleave
File size : 696 MiB
Duration : 2h 20mn
Overall bit rate : 693 Kbps
Writing application : VirtualDubMod 1.5.10.3 | www.virtualdub-fr.org || (build 2550/release)
Writing library : VirtualDubMod build 2550/release
Source : Mc-Screener @ Team Ictv... Thnx A lot
Ripper : KINGFISHER [~TDT~].


Bit rate : 587 Kbps
Width : 624 pixels
Height : 272 pixels
Display aspect ratio : 2.25:1
Frame rate : 23.976 fps
Color space : YUV
Chroma subsampling : 4:2:0
Bit depth : 8 bits
Scan type : Progressive
Bits/(Pixel*Frame) : 0.144
Stream size : 590 MiB (85%)
Writing library : XviD 1.2.1 (UTC 2008-12-04)

Audio
ID : 1
Format : MPEG Audio
Format version : Version 1
Format profile : Layer 3
Mode : Joint stereo
Mode extension : MS Stereo
Codec ID : 55
Codec ID/Hint : MP3
Duration : 2h 20mn
Bit rate mode : Constant
Bit rate : 96.0 Kbps
Channel(s) : 2 channels
Sampling rate : 32.0 KHz
Stream size : 96.5 MiB (14%)
Alignment : Aligned on interleaves
Interleave, duration : 42 ms (1.00 video frame)
Interleave, preload duration : 504 ms
Writing library : LAME3.98r
Encoding settings : -m j -V 4 -q 2 -lowpass 15.1 -b 96





Screens/Covers:

 
http://bollywoodreleases.info/images/49365619273400417408.png 
http://bollywoodreleases.info/images/24709565276593952060.png 
http://bollywoodreleases.info/images/12351175190502648437.png 
http://bollywoodreleases.info/images/98904173968209683859.png 
http://bollywoodreleases.info/images/01338866833551769719.png 
http://bollywoodreleases.info/images/76042125559792973836.png 
http://bollywoodreleases.info/images/34204812498776198201.png 
http://bollywoodreleases.info/images/35360630746047309672.png 
http://bollywoodreleases.info/images/00900509088533246046.png 
http://bollywoodreleases.info/images/19732597850155379871.png 
http://bollywoodreleases.info/images/13454328617594018847.png 
http://bollywoodreleases.info/images/05028824111624836573.png 
http://bollywoodreleases.info/images/34478287359230419683.png







****check out our MTR TEAMS other releases****

 
http://thepiratebay.org/user/tdkdemon/

 
http://thepiratebay.org/user/amanrulz/
         
 
http://thepiratebay.org/user/HDvideos/














    <<<<<<<SUPERFAST RELEASES BROUGHT TO YOU BY>>>>>>

          


                                  Masti Torrent Releasers [ MTR ]






             8888b.  888888 8b    d8  dP"Yb  88b 88     88888 8b    d8 888888 88""Yb 88888 
              8I  Yb 88__   88b  d88 dP   Yb 88Yb88     88    88b  d88   88   88__dP    88 
              8I  dY 88""   88YbdP88 Yb   dP 88 Y88     88    88YbdP88   88   88"Yb     88 
             8888Y"  888888 88 YY 88  YbodP  88  Y8     88888 88 YY 88   88   88  Yb 88888 
